<svg width="45" height="50" viewBox="0 0 45 50" fill="none" xmlns="http://www.w3.org/2000/svg">
<ellipse cx="21.5" cy="26" rx="21.5" ry="20" fill="white"/>
<path d="M40.1786 3.125H4.82143C2.1596 3.125 0 5.23661 0 7.83929V42.4107C0 45.0134 2.1596 47.125 4.82143 47.125H40.1786C42.8404 47.125 45 45.0134 45 42.4107V7.83929C45 5.23661 42.8404 3.125 40.1786 3.125ZM27.8538 40.8098C27.01 40.9571 26.6987 40.4464 26.6987 40.0241C26.6987 39.4938 26.7188 36.783 26.7188 34.5929C26.7188 33.0607 26.1964 32.0884 25.5837 31.5777C29.3002 31.175 33.2176 30.6741 33.2176 24.3982C33.2176 22.6107 32.5647 21.717 31.5 20.5679C31.6708 20.1455 32.2433 18.4071 31.3292 16.1482C29.933 15.7259 26.7388 17.9062 26.7388 17.9062C25.4129 17.5429 23.9766 17.3562 22.5603 17.3562C21.144 17.3562 19.7076 17.5429 18.3817 17.9062C18.3817 17.9062 15.1875 15.7259 13.7913 16.1482C12.8772 18.3973 13.4397 20.1357 13.6205 20.5679C12.5558 21.717 12.0536 22.6107 12.0536 24.3982C12.0536 30.6446 15.8002 31.175 19.5167 31.5777C19.0346 32 18.6027 32.7268 18.452 33.7679C17.4978 34.1902 15.0569 34.917 13.6004 32.4027C12.6864 30.8509 11.0391 30.7232 11.0391 30.7232C9.41183 30.7036 10.9286 31.725 10.9286 31.725C12.0134 32.2161 12.7768 34.1018 12.7768 34.1018C13.7511 37.0187 18.4118 36.0366 18.4118 36.0366C18.4118 37.4018 18.4319 39.6214 18.4319 40.0241C18.4319 40.4464 18.1306 40.9571 17.2768 40.8098C10.6473 38.6393 6.0067 32.4714 6.0067 25.2625C6.0067 16.2464 13.058 9.40089 22.279 9.40089C31.5 9.40089 38.9732 16.2464 38.9732 25.2625C38.9833 32.4714 34.4833 38.6491 27.8538 40.8098ZM18 34.8089C17.8092 34.8482 17.6283 34.7696 17.6083 34.642C17.5882 34.4946 17.7188 34.367 17.9096 34.3277C18.1004 34.308 18.2812 34.3866 18.3013 34.5143C18.3315 34.642 18.2009 34.7696 18 34.8089ZM17.0458 34.7205C17.0458 34.8482 16.8951 34.9562 16.6942 34.9562C16.4732 34.9759 16.3225 34.8679 16.3225 34.7205C16.3225 34.5929 16.4732 34.4848 16.6741 34.4848C16.865 34.4652 17.0458 34.5732 17.0458 34.7205ZM15.6696 34.6125C15.6295 34.7402 15.4286 34.7991 15.2578 34.7402C15.067 34.7009 14.9364 34.5536 14.9766 34.4259C15.0167 34.2982 15.2176 34.2393 15.3884 34.2786C15.5893 34.3375 15.7199 34.4848 15.6696 34.6125ZM14.4342 34.0821C14.3437 34.1902 14.1529 34.1705 14.0022 34.0232C13.8516 33.8955 13.8114 33.7089 13.9118 33.6205C14.0022 33.5125 14.1931 33.5321 14.3438 33.6795C14.4743 33.8071 14.5246 34.0036 14.4342 34.0821ZM13.5201 33.1884C13.4297 33.2473 13.2589 33.1884 13.1484 33.0411C13.0379 32.8937 13.0379 32.7268 13.1484 32.658C13.2589 32.5696 13.4297 32.6384 13.5201 32.7857C13.6306 32.933 13.6306 33.1098 13.5201 33.1884ZM12.8672 32.2357C12.7768 32.3241 12.6261 32.275 12.5156 32.1768C12.4051 32.0491 12.385 31.9018 12.4754 31.833C12.5658 31.7446 12.7165 31.7937 12.827 31.892C12.9375 32.0196 12.9576 32.167 12.8672 32.2357ZM12.1942 31.5089C12.154 31.5973 12.0234 31.617 11.9129 31.5482C11.7824 31.4893 11.7221 31.3812 11.7623 31.2929C11.8025 31.2339 11.9129 31.2045 12.0435 31.2536C12.1741 31.3223 12.2344 31.4304 12.1942 31.5089Z" fill="black"/>
</svg>
