<svg width="40" height="25" viewBox="0 0 40 25" fill="none" xmlns="http://www.w3.org/2000/svg">
<g clip-path="url(#clip0_297_1245)">
<path d="M39.1165 3.89931C38.8871 3.14563 38.4396 2.45853 37.8185 1.90643C37.1974 1.35432 36.4244 0.956474 35.5765 0.7525C32.4725 0 19.9797 0 19.9797 0C19.9797 0 7.48622 0.0227777 4.38216 0.775278C3.53427 0.979264 2.76129 1.37713 2.14019 1.92926C1.5191 2.4814 1.07157 3.16852 0.842157 3.92222C-0.0967498 8.82472 -0.460969 16.295 0.867938 21.0014C1.09737 21.7551 1.54492 22.4422 2.16601 22.9943C2.7871 23.5464 3.56007 23.9442 4.40794 24.1482C7.512 24.9007 20.0051 24.9007 20.0051 24.9007C20.0051 24.9007 32.4981 24.9007 35.602 24.1482C36.4499 23.9442 37.2229 23.5464 37.844 22.9943C38.4651 22.4422 38.9127 21.7551 39.1422 21.0014C40.1325 16.0919 40.4376 8.62639 39.1165 3.89944V3.89931Z" fill="#FF0000"/>
<path d="M16.0031 17.7862L26.367 12.4503L16.0033 7.1145L16.0031 17.7862Z" fill="white"/>
</g>
<defs>
<clipPath id="clip0_297_1245">
<rect width="40" height="25" fill="white"/>
</clipPath>
</defs>
</svg>
